<svg width="21" height="20" viewBox="0 0 21 20" fill="none" xmlns="http://www.w3.org/2000/svg">
<path d="M10.8611 0.0189738C9.48605 0.0189738 8.18918 0.284599 6.97043 0.815849C5.7673 1.33147 4.71262 2.04241 3.80637 2.94866C2.90012 3.85491 2.18918 4.9096 1.67355 6.11272C1.15793 7.33147 0.900116 8.62835 0.900116 10.0033C0.900116 11.0971 1.06418 12.144 1.3923 13.144C1.73605 14.144 2.20871 15.058 2.81027 15.8862C3.41183 16.7143 4.13449 17.433 4.97824 18.0424C5.80637 18.6674 6.72043 19.144 7.72043 19.4721C7.97043 19.519 8.14621 19.4838 8.24777 19.3666C8.34933 19.2494 8.40012 19.1205 8.40012 18.9799C8.40012 18.8705 8.39621 18.6635 8.3884 18.3588C8.38058 18.0541 8.37668 17.6987 8.37668 17.2924C6.98605 17.5893 6.0798 17.4408 5.65793 16.8471C5.23605 16.2533 5.02512 15.9565 5.02512 15.9565C4.79074 15.3783 4.54465 14.9916 4.28683 14.7963C4.02902 14.601 3.90012 14.5033 3.90012 14.5033C3.44699 14.1908 3.34543 14.0112 3.59543 13.9643C3.84543 13.9174 3.97043 13.894 3.97043 13.894C4.47043 13.9252 4.85324 14.1049 5.11887 14.433C5.38449 14.7612 5.5173 14.9252 5.5173 14.9252C5.9548 15.6752 6.47433 16.0307 7.0759 15.9916C7.67746 15.9526 8.11887 15.8705 8.40012 15.7455C8.44699 15.4174 8.52902 15.144 8.64621 14.9252C8.7634 14.7065 8.8923 14.5346 9.03293 14.4096C7.93918 14.2846 6.91183 13.9096 5.9509 13.2846C4.98996 12.6596 4.50949 11.394 4.50949 9.48772C4.50949 8.94085 4.59933 8.44475 4.77902 7.99944C4.95871 7.55413 5.2048 7.1596 5.5173 6.81585C5.47043 6.67522 5.40793 6.37054 5.3298 5.90179C5.25168 5.43304 5.35324 4.85491 5.63449 4.16741C5.63449 4.16741 5.85324 4.17522 6.29074 4.19085C6.72824 4.20647 7.42355 4.5346 8.37668 5.17522C8.7673 5.06585 9.17355 4.98382 9.59543 4.92913C10.0173 4.87444 10.4392 4.8471 10.8611 4.8471C11.2829 4.8471 11.7048 4.87444 12.1267 4.92913C12.5486 4.98382 12.9626 5.06585 13.3689 5.17522C14.322 4.5346 15.0173 4.20647 15.4548 4.19085C15.8923 4.17522 16.1111 4.16741 16.1111 4.16741C16.3767 4.85491 16.4704 5.43304 16.3923 5.90179C16.3142 6.37054 16.2517 6.67522 16.2048 6.81585C16.5173 7.1596 16.7634 7.55413 16.9431 7.99944C17.1228 8.44475 17.2126 8.94085 17.2126 9.48772C17.2126 11.394 16.7321 12.6596 15.7712 13.2846C14.8103 13.9096 13.7751 14.2846 12.6657 14.4096C12.8532 14.5658 13.0134 14.7963 13.1462 15.101C13.279 15.4057 13.3454 15.7846 13.3454 16.2377C13.3454 16.9096 13.3454 17.4955 13.3454 17.9955C13.3454 18.4955 13.3454 18.8237 13.3454 18.9799C13.3454 19.1205 13.3962 19.2494 13.4978 19.3666C13.5993 19.4838 13.7751 19.519 14.0251 19.4721C15.0095 19.1283 15.9236 18.6518 16.7673 18.0424C17.5954 17.433 18.3103 16.7143 18.9118 15.8862C19.5134 15.058 19.9861 14.144 20.3298 13.144C20.6736 12.144 20.8454 11.0971 20.8454 10.0033C20.8454 8.62835 20.5798 7.33147 20.0486 6.11272C19.5329 4.9096 18.822 3.85491 17.9157 2.94866C17.0095 2.04241 15.9548 1.33147 14.7517 0.815849C13.5329 0.284599 12.2361 0.0189738 10.8611 0.0189738Z" fill="white"/>
</svg>
