<svg width="19" height="19" viewBox="0 0 19 19" fill="none" xmlns="http://www.w3.org/2000/svg">
<path d="M9.04999 4.88281C8.40936 4.88281 7.8078 5 7.2453 5.23438C6.6828 5.48438 6.19452 5.81641 5.78046 6.23047C5.36639 6.64453 5.03436 7.13281 4.78436 7.69531C4.54999 8.25781 4.4328 8.85937 4.4328 9.5C4.4328 10.1406 4.54999 10.7422 4.78436 11.3047C5.03436 11.8672 5.36639 12.3555 5.78046 12.7695C6.19452 13.1836 6.6828 13.5156 7.2453 13.7656C7.8078 14 8.40936 14.1172 9.04999 14.1172C9.69061 14.1172 10.2922 14 10.8547 13.7656C11.4172 13.5156 11.9055 13.1836 12.3195 12.7695C12.7336 12.3555 13.0656 11.8672 13.3156 11.3047C13.55 10.7422 13.6672 10.1406 13.6672 9.5C13.6672 8.85937 13.55 8.25781 13.3156 7.69531C13.0656 7.13281 12.7336 6.64453 12.3195 6.23047C11.9055 5.81641 11.4172 5.48438 10.8547 5.23438C10.2922 5 9.69061 4.88281 9.04999 4.88281ZM9.04999 12.5C8.22186 12.5 7.51483 12.207 6.92889 11.6211C6.34296 11.0352 6.04999 10.3281 6.04999 9.5C6.04999 8.67188 6.34296 7.96484 6.92889 7.37891C7.51483 6.79297 8.22186 6.5 9.04999 6.5C9.87811 6.5 10.5851 6.79297 11.1711 7.37891C11.757 7.96484 12.05 8.67188 12.05 9.5C12.05 10.3281 11.757 11.0352 11.1711 11.6211C10.5851 12.207 9.87811 12.5 9.04999 12.5ZM14.9328 4.69531C14.9328 5.00781 14.8273 5.26562 14.6164 5.46875C14.4055 5.67188 14.1516 5.77344 13.8547 5.77344C13.5578 5.77344 13.3039 5.67188 13.093 5.46875C12.882 5.26562 12.7766 5.00781 12.7766 4.69531C12.7766 4.39844 12.882 4.14844 13.093 3.94531C13.3039 3.74219 13.5578 3.64062 13.8547 3.64062C14.1516 3.64062 14.4055 3.74219 14.6164 3.94531C14.8273 4.14844 14.9328 4.39844 14.9328 4.69531ZM17.5812 3.61719C17.3469 3.00781 16.9992 2.47266 16.5383 2.01172C16.0773 1.55078 15.55 1.20312 14.9562 0.96875C14.5969 0.84375 14.2336 0.746094 13.8664 0.675781C13.4992 0.605469 13.1281 0.570312 12.7531 0.570312C12.2844 0.539062 11.8547 0.519531 11.4641 0.511719C11.0734 0.503906 10.2687 0.5 9.04999 0.5C7.83124 0.5 7.02655 0.503906 6.63593 0.511719C6.2453 0.519531 5.81561 0.539062 5.34686 0.570312C4.97186 0.570312 4.60077 0.605469 4.23358 0.675781C3.86639 0.746094 3.51093 0.84375 3.16718 0.96875C2.5578 1.20312 2.02264 1.55078 1.56171 2.01172C1.10077 2.47266 0.753113 3.00781 0.518738 3.61719C0.393738 3.96094 0.296082 4.31641 0.225769 4.68359C0.155457 5.05078 0.112488 5.42188 0.0968628 5.79688C0.0812378 6.28125 0.069519 6.71484 0.0617065 7.09766C0.053894 7.48047 0.0499878 8.28125 0.0499878 9.5C0.0499878 10.7188 0.053894 11.5234 0.0617065 11.9141C0.069519 12.3047 0.0812378 12.7422 0.0968628 13.2266C0.112488 13.6016 0.155457 13.9688 0.225769 14.3281C0.296082 14.6875 0.393738 15.0469 0.518738 15.4062C0.753113 16.0156 1.10077 16.5469 1.56171 17C2.02264 17.4531 2.5578 17.7969 3.16718 18.0312C3.51093 18.1719 3.86639 18.2813 4.23358 18.3594C4.60077 18.4375 4.97186 18.4766 5.34686 18.4766C5.83124 18.5078 6.26483 18.5273 6.64764 18.5352C7.03046 18.543 7.83124 18.5469 9.04999 18.5469C10.2687 18.5469 11.0734 18.543 11.4641 18.5352C11.8547 18.5273 12.2922 18.5078 12.7766 18.4766C13.1359 18.4766 13.4992 18.4414 13.8664 18.3711C14.2336 18.3008 14.5969 18.2031 14.9562 18.0781C15.5656 17.8438 16.0969 17.4961 16.55 17.0352C17.0031 16.5742 17.3469 16.0391 17.5812 15.4297C17.7219 15.0859 17.8273 14.7305 17.8976 14.3633C17.968 13.9961 18.0031 13.625 18.0031 13.25C18.0187 12.7656 18.0305 12.332 18.0383 11.9492C18.0461 11.5664 18.05 10.7656 18.05 9.54688C18.05 8.3125 18.05 7.50391 18.05 7.12109C18.05 6.73828 18.0344 6.30469 18.0031 5.82031C18.0031 5.44531 17.968 5.07031 17.8976 4.69531C17.8273 4.32031 17.7219 3.96094 17.5812 3.61719ZM16.3625 13.1328C16.3625 13.4297 16.3351 13.7188 16.2805 14C16.2258 14.2812 16.1516 14.5547 16.0578 14.8203C15.9016 15.2266 15.675 15.5781 15.3781 15.875C15.0812 16.1719 14.7375 16.3906 14.3469 16.5312C14.0812 16.6406 13.8078 16.7188 13.5266 16.7656C13.2453 16.8125 12.9641 16.8437 12.6828 16.8594C12.1984 16.875 11.7726 16.8867 11.4055 16.8945C11.0383 16.9023 10.2453 16.9062 9.02655 16.9062C7.8078 16.9062 7.01483 16.9023 6.64764 16.8945C6.28046 16.8867 5.85468 16.875 5.3703 16.8594C5.07343 16.8594 4.78827 16.832 4.51483 16.7773C4.24139 16.7227 3.96405 16.6406 3.6828 16.5312C3.29218 16.3906 2.94843 16.1719 2.65155 15.875C2.35468 15.5781 2.12811 15.2266 1.97186 14.8203C1.87811 14.5547 1.80389 14.2812 1.74921 14C1.69452 13.7188 1.66718 13.4375 1.66718 13.1562C1.63593 12.6875 1.6203 12.2656 1.6203 11.8906C1.6203 11.5156 1.6203 10.7188 1.6203 9.5C1.6203 8.28125 1.6203 7.48828 1.6203 7.12109C1.6203 6.75391 1.63593 6.32812 1.66718 5.84375C1.66718 5.5625 1.69452 5.28125 1.74921 5C1.80389 4.71875 1.87811 4.4375 1.97186 4.15625C2.12811 3.76563 2.35468 3.42188 2.65155 3.125C2.94843 2.82812 3.29218 2.60156 3.6828 2.44531C3.96405 2.35156 4.24139 2.27734 4.51483 2.22266C4.78827 2.16797 5.07343 2.14062 5.3703 2.14062C5.83905 2.125 6.26093 2.11328 6.63593 2.10547C7.01093 2.09766 7.8078 2.09375 9.02655 2.09375C10.2453 2.09375 11.0383 2.09375 11.4055 2.09375C11.7726 2.09375 12.1984 2.10937 12.6828 2.14062C12.9641 2.14062 13.2453 2.16797 13.5266 2.22266C13.8078 2.27734 14.0812 2.35156 14.3469 2.44531C14.7375 2.60156 15.0812 2.82812 15.3781 3.125C15.675 3.42188 15.9016 3.76563 16.0578 4.15625C16.1516 4.4375 16.2258 4.71484 16.2805 4.98828C16.3351 5.26172 16.3625 5.54687 16.3625 5.84375C16.3781 6.3125 16.3898 6.73438 16.3976 7.10938C16.4055 7.48438 16.4094 8.28125 16.4094 9.5C16.4094 10.7188 16.4094 11.5117 16.4094 11.8789C16.4094 12.2461 16.4016 12.6641 16.3859 13.1328H16.3625Z" fill="white"/>
</svg>
