<svg width="20" height="20" viewBox="0 0 20 20" fill="none" xmlns="http://www.w3.org/2000/svg">
<path d="M5.28293 3.04236C5.28293 3.63611 5.06808 4.14783 4.6384 4.57751C4.20871 5.0072 3.69699 5.22205 3.10324 5.22205C2.49387 5.22205 1.97433 5.0072 1.54465 4.57751C1.11496 4.14783 0.900116 3.63611 0.900116 3.04236C0.900116 2.43298 1.11496 1.91345 1.54465 1.48376C1.97433 1.05408 2.49387 0.839233 3.10324 0.839233C3.69699 0.839233 4.20871 1.05408 4.6384 1.48376C5.06808 1.91345 5.28293 2.43298 5.28293 3.04236ZM7.34543 6.88611V19.0267H11.1189V13.0267C11.1189 12.2299 11.2517 11.5111 11.5173 10.8705C11.7829 10.2299 12.4001 9.90955 13.3689 9.90955C14.3376 9.90955 14.9079 10.2689 15.0798 10.9877C15.2517 11.7064 15.3376 12.4174 15.3376 13.1205V19.0267H19.1111V12.3705C19.1111 10.7299 18.8337 9.35486 18.279 8.24548C17.7243 7.13611 16.4939 6.58142 14.5876 6.58142C13.6657 6.58142 12.904 6.78845 12.3025 7.20251C11.7009 7.61658 11.2751 8.0658 11.0251 8.55017H10.9548V6.88611H7.34543ZM1.2048 6.88611H4.97824V19.0267H1.2048V6.88611Z" fill="white"/>
</svg>
