<svg width="21" height="17" viewBox="0 0 21 17" fill="none" xmlns="http://www.w3.org/2000/svg">
<path d="M18.1984 4.49219C18.1984 4.58594 18.1984 4.67578 18.1984 4.76172C18.1984 4.84766 18.1984 4.9375 18.1984 5.03125C18.1984 6.35938 17.9484 7.70312 17.4484 9.0625C16.9484 10.4219 16.2141 11.6523 15.2453 12.7539C14.2766 13.8555 13.0812 14.75 11.6594 15.4375C10.2375 16.1406 8.59686 16.4922 6.73749 16.4922C5.59686 16.4922 4.50311 16.332 3.45624 16.0117C2.40936 15.6914 1.44061 15.2422 0.549988 14.6641C0.721863 14.6953 0.885925 14.7109 1.04218 14.7109C1.19843 14.7109 1.36249 14.7109 1.53436 14.7109C2.47186 14.7109 3.36639 14.5625 4.21796 14.2656C5.06952 13.9687 5.83905 13.5469 6.52655 13C5.65155 12.9844 4.8703 12.7148 4.1828 12.1914C3.4953 11.668 3.01874 11.0078 2.75311 10.2109C2.87811 10.2266 3.00702 10.2422 3.13983 10.2578C3.27264 10.2734 3.40155 10.2812 3.52655 10.2812C3.71405 10.2812 3.89374 10.2656 4.06561 10.2344C4.23749 10.2031 4.40936 10.1719 4.58124 10.1406C3.65936 9.95312 2.88983 9.49219 2.27264 8.75781C1.65546 8.02344 1.34686 7.16406 1.34686 6.17969V6.13281C1.62811 6.27344 1.92108 6.39062 2.22577 6.48438C2.53046 6.57812 2.84686 6.63281 3.17499 6.64844C2.62811 6.28906 2.19061 5.8125 1.86249 5.21875C1.53436 4.625 1.3703 3.98438 1.3703 3.29688C1.3703 2.92188 1.42108 2.5625 1.52264 2.21875C1.62421 1.875 1.76093 1.55469 1.9328 1.25781C2.4328 1.86719 2.98749 2.42187 3.59686 2.92188C4.20624 3.42188 4.86249 3.85156 5.56561 4.21094C6.26874 4.57031 7.01874 4.85938 7.81561 5.07812C8.59686 5.29687 9.40155 5.42969 10.2297 5.47656C10.1984 5.32031 10.175 5.16406 10.1594 5.00781C10.1437 4.85156 10.1359 4.69531 10.1359 4.53906C10.1359 3.42969 10.5266 2.48047 11.3078 1.69141C12.0891 0.902344 13.0422 0.507812 14.1672 0.507812C14.7453 0.507812 15.2883 0.625 15.7961 0.859375C16.3039 1.09375 16.7375 1.40625 17.0969 1.79688C17.5656 1.70312 18.0148 1.57422 18.4445 1.41016C18.8742 1.24609 19.2766 1.04688 19.6516 0.8125C19.5109 1.28125 19.2883 1.70703 18.9836 2.08984C18.6789 2.47266 18.3156 2.78906 17.8937 3.03906C18.3 2.99219 18.6984 2.91406 19.0891 2.80469C19.4797 2.69531 19.8547 2.5625 20.2141 2.40625C19.9328 2.8125 19.6242 3.19141 19.2883 3.54297C18.9523 3.89453 18.5891 4.21094 18.1984 4.49219Z" fill="white"/>
</svg>
